<svg width="20" height="20" viewBox="0 0 20 20" fill="none" xmlns="http://www.w3.org/2000/svg">
<g id="instagram" clip-path="url(#clip0_4179_2831)">
<path id="instagram_2" d="M9.95526 4.65909C7.24171 4.65909 5.05294 6.84834 5.05294 9.5625C5.05294 12.2767 7.24171 14.4659 9.95526 14.4659C12.6688 14.4659 14.8576 12.2767 14.8576 9.5625C14.8576 6.84834 12.6688 4.65909 9.95526 4.65909ZM9.95526 12.7504C8.20169 12.7504 6.76811 11.3207 6.76811 9.5625C6.76811 7.80427 8.19742 6.37464 9.95526 6.37464C11.7131 6.37464 13.1424 7.80427 13.1424 9.5625C13.1424 11.3207 11.7088 12.7504 9.95526 12.7504ZM16.2016 4.45852C16.2016 5.09438 15.6896 5.60222 15.0581 5.60222C14.4224 5.60222 13.9147 5.09011 13.9147 4.45852C13.9147 3.82692 14.4266 3.31481 15.0581 3.31481C15.6896 3.31481 16.2016 3.82692 16.2016 4.45852ZM19.4484 5.61929C19.3759 4.08724 19.026 2.73016 17.9039 1.61206C16.7861 0.493968 15.4293 0.14403 13.8976 0.0672138C12.319 -0.0224046 7.5873 -0.0224046 6.00866 0.0672138C4.48122 0.139762 3.12444 0.489701 2.00233 1.6078C0.880217 2.72589 0.534622 4.08297 0.457824 5.61502C0.368225 7.19401 0.368225 11.9267 0.457824 13.5057C0.530356 15.0378 0.880217 16.3948 2.00233 17.5129C3.12444 18.631 4.47695 18.981 6.00866 19.0578C7.5873 19.1474 12.319 19.1474 13.8976 19.0578C15.4293 18.9852 16.7861 18.6353 17.9039 17.5129C19.0218 16.3948 19.3716 15.0378 19.4484 13.5057C19.538 11.9267 19.538 7.19828 19.4484 5.61929ZM17.409 15.1999C17.0762 16.0364 16.4319 16.6808 15.5914 17.0179C14.3328 17.5172 11.3462 17.402 9.95526 17.402C8.56435 17.402 5.57347 17.5129 4.31909 17.0179C3.48284 16.685 2.83858 16.0406 2.50152 15.1999C2.00233 13.941 2.11753 10.9537 2.11753 9.5625C2.11753 8.17128 2.0066 5.17973 2.50152 3.92507C2.83432 3.08864 3.47857 2.44424 4.31909 2.1071C5.57773 1.6078 8.56435 1.72302 9.95526 1.72302C11.3462 1.72302 14.3371 1.61206 15.5914 2.1071C16.4277 2.43997 17.0719 3.08437 17.409 3.92507C17.9082 5.184 17.793 8.17128 17.793 9.5625C17.793 10.9537 17.9082 13.9453 17.409 15.1999Z" fill="#F97316"/>
</g>
<defs>
<clipPath id="clip0_4179_2831">
<rect width="19.125" height="19.125" fill="white" transform="translate(0.390625)"/>
</clipPath>
</defs>
</svg>
