<svg width="24" height="20" viewBox="0 0 24 20" fill="none" xmlns="http://www.w3.org/2000/svg">
<path id="twitter" d="M20.9064 4.76629C20.921 4.97546 20.921 5.18468 20.921 5.39385C20.921 11.7738 16.1883 19.125 7.5383 19.125C4.8734 19.125 2.39784 18.3331 0.31543 16.9585C0.694061 17.0033 1.05808 17.0183 1.45128 17.0183C3.65014 17.0183 5.67432 16.2563 7.29073 14.9564C5.22289 14.9115 3.48998 13.522 2.89292 11.6095C3.18419 11.6543 3.47541 11.6842 3.78125 11.6842C4.20354 11.6842 4.62588 11.6244 5.01903 11.5198C2.86383 11.0716 1.24737 9.12919 1.24737 6.78339V6.72365C1.87353 7.08224 2.6017 7.30636 3.37344 7.33621C2.10652 6.46959 1.27651 4.99041 1.27651 3.31696C1.27651 2.42049 1.50946 1.59871 1.91723 0.881521C4.23263 3.81003 7.71302 5.7225 11.6157 5.93172C11.5429 5.57312 11.4992 5.19962 11.4992 4.82608C11.4992 2.16648 13.5961 0 16.2028 0C17.557 0 18.7803 0.582713 19.6395 1.52402C20.7025 1.31485 21.7218 0.911415 22.6247 0.358596C22.2752 1.47923 21.5325 2.42054 20.5569 3.01815C21.5034 2.91361 22.4208 2.64461 23.2654 2.27111C22.6248 3.22732 21.8238 4.07895 20.9064 4.76629Z" fill="#F97316"/>
</svg>
