<svg width="23" height="20" viewBox="0 0 23 20" fill="none" xmlns="http://www.w3.org/2000/svg">
<g id="youtube" clip-path="url(#clip0_4179_2835)">
<path id="Vector" d="M22.1127 4.30604C21.8634 3.36374 21.129 2.62161 20.1964 2.36975C18.5061 1.91211 11.7281 1.91211 11.7281 1.91211C11.7281 1.91211 4.9502 1.91211 3.25984 2.36975C2.32729 2.62165 1.59283 3.36374 1.34355 4.30604C0.890625 6.01402 0.890625 9.57757 0.890625 9.57757C0.890625 9.57757 0.890625 13.1411 1.34355 14.8491C1.59283 15.7914 2.32729 16.5026 3.25984 16.7545C4.9502 17.2121 11.7281 17.2121 11.7281 17.2121C11.7281 17.2121 18.5061 17.2121 20.1964 16.7545C21.129 16.5026 21.8634 15.7914 22.1127 14.8491C22.5656 13.1411 22.5656 9.57757 22.5656 9.57757C22.5656 9.57757 22.5656 6.01402 22.1127 4.30604ZM9.51135 12.813V6.34214L15.1764 9.57765L9.51135 12.813Z" fill="#F97316"/>
</g>
<defs>
<clipPath id="clip0_4179_2835">
<rect width="21.675" height="19.125" fill="white" transform="translate(0.890625)"/>
</clipPath>
</defs>
</svg>
